<mxfile host="65bd71144e">
    <diagram id="KeAzwPrhYBdmrzgmK8_x" name="第 1 页">
        <mxGraphModel dx="814" dy="578" grid="1" gridSize="10" guides="1" tooltips="1" connect="1" arrows="1" fold="1" page="1" pageScale="1" pageWidth="827" pageHeight="1169" math="0" shadow="0">
            <root>
                <mxCell id="0"/>
                <mxCell id="1" parent="0"/>
                <mxCell id="5" value="&lt;font style=&quot;font-size: 12px&quot;&gt;例句&lt;/font&gt;" style="edgeStyle=none;html=1;sketch=1;" parent="1" source="3" target="4" edge="1">
                    <mxGeometry relative="1" as="geometry"/>
                </mxCell>
                <mxCell id="3" value="主语从句：简单句修改成从句后&lt;b&gt;充当了句子成分中的主语&lt;/b&gt;" style="rounded=0;whiteSpace=wrap;html=1;fillColor=#ffe6cc;strokeColor=#d79b00;align=left;comic=1;" parent="1" vertex="1">
                    <mxGeometry x="80" y="310" width="120" height="60" as="geometry"/>
                </mxCell>
                <mxCell id="4" value="&lt;span style=&quot;background-color: rgb(240 , 155 , 50)&quot;&gt;That the rabbit ate a carrot&lt;/span&gt; is obvious." style="whiteSpace=wrap;html=1;align=left;fillColor=#e1d5e7;strokeColor=#9673a6;rounded=0;comic=1;" parent="1" vertex="1">
                    <mxGeometry x="260" y="321.25" width="216" height="37.5" as="geometry"/>
                </mxCell>
                <mxCell id="90" style="edgeStyle=orthogonalEdgeStyle;curved=1;sketch=1;html=1;exitX=1;exitY=0.5;exitDx=0;exitDy=0;entryX=0;entryY=0.5;entryDx=0;entryDy=0;fontSize=12;" edge="1" parent="1" source="7" target="8">
                    <mxGeometry relative="1" as="geometry"/>
                </mxCell>
                <mxCell id="7" value="上面的例句中的主语由从句充当，其内容为“兔子吃了胡萝卜”这一&lt;b&gt;确定的信息&lt;/b&gt;，此外，&lt;b&gt;不确定的信息也可以使用主语从句而使用不同的引导词&lt;/b&gt;，不同的引导词如下" style="rounded=0;whiteSpace=wrap;html=1;fillColor=#ffe6cc;strokeColor=#d79b00;align=left;comic=1;" parent="1" vertex="1">
                    <mxGeometry x="82.95" y="420" width="310" height="60" as="geometry"/>
                </mxCell>
                <mxCell id="17" style="edgeStyle=none;html=1;exitX=1;exitY=0.5;exitDx=0;exitDy=0;entryX=0;entryY=0.5;entryDx=0;entryDy=0;sketch=1;" parent="1" source="8" target="9" edge="1">
                    <mxGeometry relative="1" as="geometry"/>
                </mxCell>
                <mxCell id="18" style="edgeStyle=none;html=1;exitX=1;exitY=0.5;exitDx=0;exitDy=0;entryX=0;entryY=0.5;entryDx=0;entryDy=0;sketch=1;" parent="1" source="8" target="10" edge="1">
                    <mxGeometry relative="1" as="geometry"/>
                </mxCell>
                <mxCell id="19" style="edgeStyle=none;html=1;exitX=1;exitY=0.5;exitDx=0;exitDy=0;entryX=0;entryY=0.5;entryDx=0;entryDy=0;sketch=1;" parent="1" source="8" target="11" edge="1">
                    <mxGeometry relative="1" as="geometry"/>
                </mxCell>
                <mxCell id="20" style="edgeStyle=none;html=1;exitX=1;exitY=0.5;exitDx=0;exitDy=0;entryX=0;entryY=0.5;entryDx=0;entryDy=0;sketch=1;" parent="1" source="8" target="12" edge="1">
                    <mxGeometry relative="1" as="geometry"/>
                </mxCell>
                <mxCell id="21" style="edgeStyle=none;html=1;exitX=1;exitY=0.5;exitDx=0;exitDy=0;entryX=0;entryY=0.5;entryDx=0;entryDy=0;sketch=1;" parent="1" source="8" target="13" edge="1">
                    <mxGeometry relative="1" as="geometry"/>
                </mxCell>
                <mxCell id="22" style="edgeStyle=none;html=1;exitX=1;exitY=0.5;exitDx=0;exitDy=0;entryX=0;entryY=0.5;entryDx=0;entryDy=0;sketch=1;" parent="1" source="8" target="16" edge="1">
                    <mxGeometry relative="1" as="geometry"/>
                </mxCell>
                <mxCell id="8" value="不确定信息&lt;br&gt;引导词" style="rounded=0;whiteSpace=wrap;html=1;fillColor=#f8cecc;strokeColor=#b85450;align=center;comic=1;" parent="1" vertex="1">
                    <mxGeometry x="435.03" y="430" width="70" height="40" as="geometry"/>
                </mxCell>
                <mxCell id="9" value="whether" style="rounded=0;whiteSpace=wrap;html=1;fillColor=#dae8fc;strokeColor=#6c8ebf;align=center;comic=1;" parent="1" vertex="1">
                    <mxGeometry x="563.61" y="340" width="80" height="30" as="geometry"/>
                </mxCell>
                <mxCell id="10" value="where" style="rounded=0;whiteSpace=wrap;html=1;fillColor=#dae8fc;strokeColor=#6c8ebf;align=center;comic=1;" parent="1" vertex="1">
                    <mxGeometry x="563.61" y="381.25" width="80" height="30" as="geometry"/>
                </mxCell>
                <mxCell id="11" value="when" style="rounded=0;whiteSpace=wrap;html=1;fillColor=#dae8fc;strokeColor=#6c8ebf;align=center;comic=1;" parent="1" vertex="1">
                    <mxGeometry x="563.61" y="421.25" width="80" height="30" as="geometry"/>
                </mxCell>
                <mxCell id="12" value="how" style="rounded=0;whiteSpace=wrap;html=1;fillColor=#dae8fc;strokeColor=#6c8ebf;align=center;comic=1;" parent="1" vertex="1">
                    <mxGeometry x="563.61" y="461.25" width="80" height="30" as="geometry"/>
                </mxCell>
                <mxCell id="13" value="who" style="rounded=0;whiteSpace=wrap;html=1;fillColor=#dae8fc;strokeColor=#6c8ebf;align=center;comic=1;" parent="1" vertex="1">
                    <mxGeometry x="563.61" y="501.25" width="80" height="30" as="geometry"/>
                </mxCell>
                <mxCell id="16" value="what" style="rounded=0;whiteSpace=wrap;html=1;fillColor=#dae8fc;strokeColor=#6c8ebf;align=center;comic=1;" parent="1" vertex="1">
                    <mxGeometry x="563.61" y="541.25" width="80" height="30" as="geometry"/>
                </mxCell>
                <mxCell id="23" value="这些词在问句中作疑问代(副)词，而在名词性从句中&lt;b&gt;做连接代(副)词&lt;/b&gt;，它们就相当于&lt;b&gt;陈述语序排列后&lt;/b&gt;将这些&lt;b&gt;连接代(副)词提到前面&lt;/b&gt;而成" style="rounded=0;whiteSpace=wrap;html=1;fillColor=#e1d5e7;strokeColor=#9673a6;align=left;comic=1;" parent="1" vertex="1">
                    <mxGeometry x="80" y="571.25" width="310" height="60" as="geometry"/>
                </mxCell>
                <mxCell id="27" value="和形容词从句中关系代词和关系副词的同理，&lt;b&gt;连接代词&lt;/b&gt;在从句中词性为&lt;b&gt;代词（从句的主语或宾语等）&lt;/b&gt;，而&lt;b&gt;连接副词&lt;/b&gt;则在从句中词性为&lt;b&gt;副词（从句的状语）&lt;/b&gt;。" style="rounded=0;whiteSpace=wrap;html=1;fillColor=#e1d5e7;strokeColor=#9673a6;align=left;comic=1;" parent="1" vertex="1">
                    <mxGeometry x="570" y="865" width="310" height="60" as="geometry"/>
                </mxCell>
                <mxCell id="32" style="edgeStyle=none;html=1;exitX=0.5;exitY=1;exitDx=0;exitDy=0;entryX=0.5;entryY=0;entryDx=0;entryDy=0;sketch=1;" parent="1" source="28" target="29" edge="1">
                    <mxGeometry relative="1" as="geometry"/>
                </mxCell>
                <mxCell id="28" value="上面的主语从句都是放在前面，但这样往往会显得&lt;b&gt;头重脚轻&lt;/b&gt;，因而经常：&lt;br&gt;① 将主语从句放在句子的末尾&lt;br&gt;② &lt;b&gt;形式主语it&lt;/b&gt;来指代后面的主语从句，放在句子的前面" style="rounded=0;whiteSpace=wrap;html=1;fillColor=#ffe6cc;strokeColor=#d79b00;align=left;comic=1;" parent="1" vertex="1">
                    <mxGeometry x="50" y="990" width="330" height="62" as="geometry"/>
                </mxCell>
                <mxCell id="31" value="" style="edgeStyle=none;html=1;sketch=1;" parent="1" source="29" target="30" edge="1">
                    <mxGeometry relative="1" as="geometry"/>
                </mxCell>
                <mxCell id="29" value="&lt;span style=&quot;background-color: rgb(240 , 155 , 50)&quot;&gt;That the hungry rabbit had already eaten a carrot for dinner this evening&lt;/span&gt; is obvious." style="rounded=0;whiteSpace=wrap;html=1;fillColor=#e1d5e7;strokeColor=#9673a6;align=left;comic=1;" parent="1" vertex="1">
                    <mxGeometry x="50" y="1070" width="280" height="50" as="geometry"/>
                </mxCell>
                <mxCell id="30" value="&lt;span style=&quot;background-color: rgb(152 , 232 , 72)&quot;&gt;It&lt;/span&gt; is obvious &lt;span style=&quot;background-color: rgb(240 , 155 , 50)&quot;&gt;that the hungry rabbit had already eaten a carrot for dinner this evening&lt;/span&gt;." style="rounded=0;whiteSpace=wrap;html=1;fillColor=#e1d5e7;strokeColor=#9673a6;align=left;comic=1;" parent="1" vertex="1">
                    <mxGeometry x="360" y="1070" width="280" height="50" as="geometry"/>
                </mxCell>
                <mxCell id="33" value="主语从句" style="rounded=0;whiteSpace=wrap;html=1;fillColor=#b0e3e6;strokeColor=#0e8088;align=center;comic=1;" parent="1" vertex="1">
                    <mxGeometry x="365.03" y="250" width="140" height="40" as="geometry"/>
                </mxCell>
                <mxCell id="34" value="宾语从句" style="rounded=0;whiteSpace=wrap;html=1;fillColor=#b0e3e6;strokeColor=#0e8088;align=center;comic=1;" parent="1" vertex="1">
                    <mxGeometry x="365.03" y="1169" width="140" height="40" as="geometry"/>
                </mxCell>
                <mxCell id="35" value="宾语从句：简单句修改成从句后充当了句子成分中的&lt;b&gt;宾语&lt;/b&gt;" style="rounded=0;whiteSpace=wrap;html=1;fillColor=#ffe6cc;strokeColor=#d79b00;align=left;comic=1;" parent="1" vertex="1">
                    <mxGeometry x="40.83" y="1220" width="120" height="60" as="geometry"/>
                </mxCell>
                <mxCell id="36" value="例句" style="edgeStyle=none;html=1;exitX=1;exitY=0.5;exitDx=0;exitDy=0;sketch=1;" parent="1" source="35" target="38" edge="1">
                    <mxGeometry relative="1" as="geometry">
                        <mxPoint x="169.02999999999994" y="1251.2499999999998" as="sourcePoint"/>
                    </mxGeometry>
                </mxCell>
                <mxCell id="38" value="I saw &lt;span style=&quot;background-color: rgb(240 , 155 , 50)&quot;&gt;that the rabbit ate a carrot&lt;/span&gt;." style="whiteSpace=wrap;html=1;align=center;fillColor=#e1d5e7;strokeColor=#9673a6;rounded=0;comic=1;" parent="1" vertex="1">
                    <mxGeometry x="219.03" y="1231.25" width="216" height="37.5" as="geometry"/>
                </mxCell>
                <mxCell id="41" value="" style="edgeStyle=none;html=1;exitX=1;exitY=0.5;exitDx=0;exitDy=0;entryX=0;entryY=0.5;entryDx=0;entryDy=0;sketch=1;" parent="1" source="39" target="100" edge="1">
                    <mxGeometry relative="1" as="geometry">
                        <mxPoint x="240" y="1350" as="sourcePoint"/>
                        <mxPoint x="266.0999999999999" y="1375" as="targetPoint"/>
                    </mxGeometry>
                </mxCell>
                <mxCell id="39" value="宾语从句中&lt;b&gt;很多的东西其实和主语从句的基本相同&lt;/b&gt;，比如连接代(副)词，可以表示确定信息和不确定信息等等。" style="rounded=0;whiteSpace=wrap;html=1;fillColor=#e1d5e7;strokeColor=#9673a6;align=left;comic=1;" parent="1" vertex="1">
                    <mxGeometry x="40.83" y="1340" width="178.2" height="70" as="geometry"/>
                </mxCell>
                <mxCell id="42" value="tips：除了某些介词参与的情况下引导词都位于从句的开头。另外不要将名词性从句的引导词和问句中的疑问代词混淆而错误地加上助动词。" style="rounded=0;whiteSpace=wrap;html=1;fillColor=#e1d5e7;strokeColor=#9673a6;align=left;comic=1;" parent="1" vertex="1">
                    <mxGeometry x="505.03000000000003" y="1330" width="178.2" height="90" as="geometry"/>
                </mxCell>
                <mxCell id="45" value="" style="edgeStyle=none;html=1;sketch=1;" parent="1" source="43" target="44" edge="1">
                    <mxGeometry relative="1" as="geometry"/>
                </mxCell>
                <mxCell id="47" value="" style="edgeStyle=none;html=1;sketch=1;" parent="1" source="43" target="46" edge="1">
                    <mxGeometry relative="1" as="geometry"/>
                </mxCell>
                <mxCell id="43" value="在口语和非正式书面语中宾语从句的&lt;b&gt;that引导词可以省略&lt;/b&gt;（但其他的引导词都无法省略）" style="rounded=0;whiteSpace=wrap;html=1;fillColor=#ffe6cc;strokeColor=#d79b00;align=left;comic=1;" parent="1" vertex="1">
                    <mxGeometry x="40.83" y="1470" width="198.2" height="60" as="geometry"/>
                </mxCell>
                <mxCell id="44" value="I know (that) the rabbit ate a carrot." style="rounded=0;whiteSpace=wrap;html=1;fillColor=#e1d5e7;strokeColor=#9673a6;align=center;comic=1;" parent="1" vertex="1">
                    <mxGeometry x="281.77" y="1485" width="220" height="30" as="geometry"/>
                </mxCell>
                <mxCell id="49" value="" style="edgeStyle=none;html=1;sketch=1;entryX=0;entryY=0.5;entryDx=0;entryDy=0;" parent="1" source="46" target="101" edge="1">
                    <mxGeometry relative="1" as="geometry">
                        <mxPoint x="310" y="1550" as="targetPoint"/>
                    </mxGeometry>
                </mxCell>
                <mxCell id="46" value="但这种省略也不是绝对的，当会引起歧义时则不能省略" style="rounded=0;whiteSpace=wrap;html=1;fillColor=#e1d5e7;strokeColor=#9673a6;align=left;comic=1;" parent="1" vertex="1">
                    <mxGeometry x="40.83" y="1560" width="198.2" height="40" as="geometry"/>
                </mxCell>
                <mxCell id="55" value="" style="edgeStyle=none;html=1;sketch=1;" parent="1" source="52" target="54" edge="1">
                    <mxGeometry relative="1" as="geometry"/>
                </mxCell>
                <mxCell id="52" value="在&lt;b&gt;表达意见&lt;/b&gt;时往往会使用宾语从句，例如I think that...，I believe that...。&lt;br&gt;在这种情况，如果是想&lt;b&gt;表达否定的想法&lt;/b&gt;则会将&lt;b&gt;否定移至主句的谓语动词之前&lt;/b&gt;" style="rounded=0;whiteSpace=wrap;html=1;fillColor=#ffe6cc;strokeColor=#d79b00;align=left;comic=1;" parent="1" vertex="1">
                    <mxGeometry x="132.67000000000002" y="1640" width="208.2" height="70" as="geometry"/>
                </mxCell>
                <mxCell id="54" value="I don't believe that you will give me some coins." style="whiteSpace=wrap;html=1;align=left;fillColor=#e1d5e7;strokeColor=#9673a6;rounded=0;comic=1;" parent="1" vertex="1">
                    <mxGeometry x="371.3" y="1659" width="258.2" height="31" as="geometry"/>
                </mxCell>
                <mxCell id="58" value="" style="edgeStyle=none;html=1;sketch=1;" parent="1" source="56" target="57" edge="1">
                    <mxGeometry relative="1" as="geometry"/>
                </mxCell>
                <mxCell id="56" value="主从时态一致" style="rounded=0;whiteSpace=wrap;html=1;fillColor=#ffe6cc;strokeColor=#d79b00;align=center;comic=1;" parent="1" vertex="1">
                    <mxGeometry x="40.83" y="1754" width="89.17" height="30" as="geometry"/>
                </mxCell>
                <mxCell id="60" value="一般" style="edgeStyle=none;html=1;exitX=1;exitY=0.5;exitDx=0;exitDy=0;entryX=0;entryY=0.5;entryDx=0;entryDy=0;sketch=1;" parent="1" source="57" target="59" edge="1">
                    <mxGeometry relative="1" as="geometry"/>
                </mxCell>
                <mxCell id="63" value="不变的&lt;br&gt;客观现象" style="edgeStyle=none;html=1;exitX=1;exitY=0.5;exitDx=0;exitDy=0;entryX=0;entryY=0.5;entryDx=0;entryDy=0;sketch=1;" parent="1" source="57" target="62" edge="1">
                    <mxGeometry relative="1" as="geometry"/>
                </mxCell>
                <mxCell id="57" value="主句和宾语从句的&lt;b&gt;时态一般需要保持一致&lt;/b&gt;，除非从句描述的是不变的客观现象使用一般现在时" style="whiteSpace=wrap;html=1;fillColor=#fff2cc;strokeColor=#d6b656;rounded=0;align=left;comic=1;" parent="1" vertex="1">
                    <mxGeometry x="170" y="1734.5" width="135.9" height="69" as="geometry"/>
                </mxCell>
                <mxCell id="59" value="I &lt;span style=&quot;background-color: rgb(240 , 155 , 50)&quot;&gt;didn't&lt;/span&gt; think you &lt;span style=&quot;background-color: rgb(240 , 155 , 50)&quot;&gt;were&lt;/span&gt; right." style="whiteSpace=wrap;html=1;align=center;fillColor=#e1d5e7;strokeColor=#9673a6;rounded=0;comic=1;" parent="1" vertex="1">
                    <mxGeometry x="392" y="1729" width="186" height="31" as="geometry"/>
                </mxCell>
                <mxCell id="62" value="I &lt;span style=&quot;background-color: rgb(240 , 155 , 50)&quot;&gt;knew&lt;/span&gt; (that) the sun &lt;span style=&quot;background-color: rgb(240 , 155 , 50)&quot;&gt;rises&lt;/span&gt; in the east." style="whiteSpace=wrap;html=1;align=center;fillColor=#e1d5e7;strokeColor=#9673a6;rounded=0;comic=1;" parent="1" vertex="1">
                    <mxGeometry x="392" y="1778" width="216" height="31" as="geometry"/>
                </mxCell>
                <mxCell id="67" value="" style="edgeStyle=none;html=1;sketch=1;" parent="1" source="65" target="66" edge="1">
                    <mxGeometry relative="1" as="geometry"/>
                </mxCell>
                <mxCell id="65" value="be + 形容词 + that句型" style="rounded=0;whiteSpace=wrap;html=1;fillColor=#ffe6cc;strokeColor=#d79b00;align=center;comic=1;" parent="1" vertex="1">
                    <mxGeometry x="38.75" y="1864.41" width="108.2" height="40" as="geometry"/>
                </mxCell>
                <mxCell id="69" style="edgeStyle=none;html=1;exitX=1;exitY=0.5;exitDx=0;exitDy=0;sketch=1;entryX=0;entryY=0.5;entryDx=0;entryDy=0;" parent="1" source="66" target="104" edge="1">
                    <mxGeometry relative="1" as="geometry">
                        <mxPoint x="357.92" y="1898.51" as="targetPoint"/>
                    </mxGeometry>
                </mxCell>
                <mxCell id="66" value="这种句型可以认为是宾语" style="whiteSpace=wrap;html=1;fillColor=#fff2cc;strokeColor=#d6b656;rounded=0;align=left;comic=1;" parent="1" vertex="1">
                    <mxGeometry x="192.01999999999998" y="1869.98" width="135.9" height="28.85" as="geometry"/>
                </mxCell>
                <mxCell id="71" value="表语从句" style="rounded=0;whiteSpace=wrap;html=1;fillColor=#b0e3e6;strokeColor=#0e8088;align=center;comic=1;" parent="1" vertex="1">
                    <mxGeometry x="312.63" y="1980" width="140" height="40" as="geometry"/>
                </mxCell>
                <mxCell id="74" value="" style="edgeStyle=none;html=1;sketch=1;entryX=0;entryY=0.5;entryDx=0;entryDy=0;" parent="1" source="73" target="107" edge="1">
                    <mxGeometry relative="1" as="geometry">
                        <mxPoint x="230" y="2120" as="targetPoint"/>
                    </mxGeometry>
                </mxCell>
                <mxCell id="73" value="表语从句非常简单，其实名词性从句&lt;b&gt;和前面的没有任何特殊情况的改变&lt;/b&gt;，只是&lt;b&gt;将从句移动到了系动词的后面&lt;/b&gt;" style="rounded=0;whiteSpace=wrap;html=1;fillColor=#ffe6cc;strokeColor=#d79b00;align=center;comic=1;" parent="1" vertex="1">
                    <mxGeometry x="40.83" y="2070" width="150" height="80" as="geometry"/>
                </mxCell>
                <mxCell id="77" value="" style="edgeStyle=none;html=1;shadow=0;sketch=1;entryX=0;entryY=0.5;entryDx=0;entryDy=0;" parent="1" source="75" target="109" edge="1">
                    <mxGeometry relative="1" as="geometry">
                        <mxPoint x="240.82999999999993" y="2220" as="targetPoint"/>
                    </mxGeometry>
                </mxCell>
                <mxCell id="75" value="也存在使用it来作为形式主语+系动词+表语从句的句子，在这里&lt;b&gt;it没有任何含义&lt;/b&gt;，相当于一个&lt;b&gt;占位符&lt;/b&gt;" style="rounded=0;whiteSpace=wrap;html=1;fillColor=#ffe6cc;strokeColor=#d79b00;align=center;comic=1;" parent="1" vertex="1">
                    <mxGeometry x="40.83" y="2180" width="150" height="80" as="geometry"/>
                </mxCell>
                <mxCell id="Gx980_7J1kaSHP0zucbP-77" value="同位语从句" style="rounded=0;whiteSpace=wrap;html=1;fillColor=#b0e3e6;strokeColor=#0e8088;align=center;comic=1;" parent="1" vertex="1">
                    <mxGeometry x="320" y="2290" width="140" height="40" as="geometry"/>
                </mxCell>
                <mxCell id="Gx980_7J1kaSHP0zucbP-80" value="例句" style="edgeStyle=none;html=1;exitX=1;exitY=0.5;exitDx=0;exitDy=0;entryX=0;entryY=0.5;entryDx=0;entryDy=0;sketch=1;" parent="1" source="Gx980_7J1kaSHP0zucbP-78" target="Gx980_7J1kaSHP0zucbP-79" edge="1">
                    <mxGeometry relative="1" as="geometry"/>
                </mxCell>
                <mxCell id="Gx980_7J1kaSHP0zucbP-78" value="同位语的作用就是&lt;b&gt;将主语或宾语以不同的说法再说一遍&lt;/b&gt;，同位语从句的功能也是如此，&lt;b&gt;一般主语或宾语是抽象概念时使用同位语从句来进行解释说明&lt;/b&gt;" style="rounded=0;whiteSpace=wrap;html=1;fillColor=#ffe6cc;strokeColor=#d79b00;align=center;comic=1;" parent="1" vertex="1">
                    <mxGeometry x="40.83" y="2350" width="160" height="80" as="geometry"/>
                </mxCell>
                <mxCell id="Gx980_7J1kaSHP0zucbP-79" value="The fact &lt;span style=&quot;background-color: rgb(240 , 155 , 50)&quot;&gt;that the rabbit ate the carrot&lt;/span&gt; did not surprise me." style="whiteSpace=wrap;html=1;align=center;fillColor=#e1d5e7;strokeColor=#9673a6;rounded=0;comic=1;" parent="1" vertex="1">
                    <mxGeometry x="262.84999999999997" y="2372.25" width="316" height="35.5" as="geometry"/>
                </mxCell>
                <mxCell id="Gx980_7J1kaSHP0zucbP-84" value="例句" style="edgeStyle=none;html=1;sketch=1;" parent="1" source="Gx980_7J1kaSHP0zucbP-82" target="Gx980_7J1kaSHP0zucbP-83" edge="1">
                    <mxGeometry relative="1" as="geometry"/>
                </mxCell>
                <mxCell id="Gx980_7J1kaSHP0zucbP-82" value="上面例句中的同位语是只包含了已知信息，此外也&lt;b&gt;可以包含未知信息&lt;/b&gt;，就是使用其他的引导词" style="rounded=0;whiteSpace=wrap;html=1;fillColor=#ffe6cc;strokeColor=#d79b00;align=center;comic=1;" parent="1" vertex="1">
                    <mxGeometry x="38.75" y="2450" width="170" height="55" as="geometry"/>
                </mxCell>
                <mxCell id="Gx980_7J1kaSHP0zucbP-83" value="I have no idea &lt;span style=&quot;background-color: rgb(240 , 155 , 50)&quot;&gt;who ate the carrot&lt;/span&gt;." style="whiteSpace=wrap;html=1;align=center;fillColor=#e1d5e7;strokeColor=#9673a6;rounded=0;comic=1;" parent="1" vertex="1">
                    <mxGeometry x="263" y="2461.12" width="210" height="32.75" as="geometry"/>
                </mxCell>
                <mxCell id="Gx980_7J1kaSHP0zucbP-88" value="宾语补语从句" style="rounded=0;whiteSpace=wrap;html=1;fillColor=#b0e3e6;strokeColor=#0e8088;align=center;comic=1;" parent="1" vertex="1">
                    <mxGeometry x="320" y="2540" width="140" height="40" as="geometry"/>
                </mxCell>
                <mxCell id="Gx980_7J1kaSHP0zucbP-91" value="例句" style="edgeStyle=none;html=1;sketch=1;" parent="1" source="Gx980_7J1kaSHP0zucbP-89" target="Gx980_7J1kaSHP0zucbP-90" edge="1">
                    <mxGeometry relative="1" as="geometry"/>
                </mxCell>
                <mxCell id="Gx980_7J1kaSHP0zucbP-89" value="宾语补语从句即名词性从句充当句子的&lt;b&gt;宾语补语成分&lt;/b&gt;，宾语补语出现在&lt;b&gt;&amp;lt;主语+谓语+宾语+宾补&amp;gt;&lt;/b&gt;的简单句中" style="rounded=0;whiteSpace=wrap;html=1;fillColor=#ffe6cc;strokeColor=#d79b00;align=center;comic=1;" parent="1" vertex="1">
                    <mxGeometry x="40.83" y="2600" width="170" height="70" as="geometry"/>
                </mxCell>
                <mxCell id="Gx980_7J1kaSHP0zucbP-90" value="You can call me &lt;span style=&quot;background-color: rgb(240 , 155 , 50)&quot;&gt;what you like&lt;/span&gt;." style="whiteSpace=wrap;html=1;fillColor=#e1d5e7;strokeColor=#9673a6;rounded=0;comic=1;" parent="1" vertex="1">
                    <mxGeometry x="266.87" y="2617.25" width="238.2" height="35.5" as="geometry"/>
                </mxCell>
                <mxCell id="78" style="edgeStyle=orthogonalEdgeStyle;html=1;exitX=1;exitY=0.5;exitDx=0;exitDy=0;entryX=0;entryY=0.5;entryDx=0;entryDy=0;sketch=1;curved=1;" edge="1" parent="1" source="83" target="84">
                    <mxGeometry relative="1" as="geometry"/>
                </mxCell>
                <mxCell id="79" style="edgeStyle=orthogonalEdgeStyle;html=1;exitX=1;exitY=0.5;exitDx=0;exitDy=0;entryX=0;entryY=0.5;entryDx=0;entryDy=0;sketch=1;curved=1;" edge="1" parent="1" source="83" target="85">
                    <mxGeometry relative="1" as="geometry"/>
                </mxCell>
                <mxCell id="80" style="edgeStyle=orthogonalEdgeStyle;html=1;exitX=1;exitY=0.5;exitDx=0;exitDy=0;entryX=0;entryY=0.5;entryDx=0;entryDy=0;sketch=1;curved=1;" edge="1" parent="1" source="83" target="87">
                    <mxGeometry relative="1" as="geometry"/>
                </mxCell>
                <mxCell id="81" style="edgeStyle=orthogonalEdgeStyle;html=1;exitX=1;exitY=0.5;exitDx=0;exitDy=0;entryX=0;entryY=0.5;entryDx=0;entryDy=0;sketch=1;curved=1;" edge="1" parent="1" source="83" target="86">
                    <mxGeometry relative="1" as="geometry"/>
                </mxCell>
                <mxCell id="82" style="edgeStyle=orthogonalEdgeStyle;html=1;exitX=1;exitY=0.5;exitDx=0;exitDy=0;entryX=0;entryY=0.5;entryDx=0;entryDy=0;sketch=1;curved=1;" edge="1" parent="1" source="83" target="88">
                    <mxGeometry relative="1" as="geometry"/>
                </mxCell>
                <mxCell id="83" value="&lt;div style=&quot;text-align: left&quot;&gt;名词性从句&lt;/div&gt;" style="text;html=1;strokeColor=#6c8ebf;fillColor=#dae8fc;align=center;verticalAlign=middle;whiteSpace=wrap;rounded=0;comic=1;" vertex="1" parent="1">
                    <mxGeometry x="190" y="100" width="95.9" height="40" as="geometry"/>
                </mxCell>
                <mxCell id="84" value="&lt;div style=&quot;text-align: left&quot;&gt;主语从句&lt;/div&gt;" style="text;html=1;strokeColor=#82b366;fillColor=#d5e8d4;align=center;verticalAlign=middle;whiteSpace=wrap;rounded=0;comic=1;" vertex="1" parent="1">
                    <mxGeometry x="360" y="20" width="90" height="30" as="geometry"/>
                </mxCell>
                <mxCell id="85" value="&lt;div style=&quot;text-align: left&quot;&gt;宾语从句&lt;/div&gt;" style="text;html=1;strokeColor=#82b366;fillColor=#d5e8d4;align=center;verticalAlign=middle;whiteSpace=wrap;rounded=0;comic=1;" vertex="1" parent="1">
                    <mxGeometry x="360" y="60" width="90" height="30" as="geometry"/>
                </mxCell>
                <mxCell id="86" value="&lt;div style=&quot;text-align: left&quot;&gt;主语补足语从句&lt;/div&gt;&lt;div style=&quot;text-align: left&quot;&gt;（表语从句）&lt;/div&gt;" style="text;html=1;strokeColor=#82b366;fillColor=#d5e8d4;align=center;verticalAlign=middle;whiteSpace=wrap;rounded=0;comic=1;" vertex="1" parent="1">
                    <mxGeometry x="359.99999999999994" y="100" width="120" height="40" as="geometry"/>
                </mxCell>
                <mxCell id="87" value="&lt;div style=&quot;text-align: left&quot;&gt;宾语补足语从句&lt;/div&gt;" style="text;html=1;strokeColor=#82b366;fillColor=#d5e8d4;align=center;verticalAlign=middle;whiteSpace=wrap;rounded=0;comic=1;" vertex="1" parent="1">
                    <mxGeometry x="358.53" y="190" width="120" height="30" as="geometry"/>
                </mxCell>
                <mxCell id="88" value="&lt;div style=&quot;text-align: left&quot;&gt;同位语从句&lt;/div&gt;" style="text;html=1;strokeColor=#82b366;fillColor=#d5e8d4;align=center;verticalAlign=middle;whiteSpace=wrap;rounded=0;comic=1;" vertex="1" parent="1">
                    <mxGeometry x="358.53" y="150" width="94.1" height="30" as="geometry"/>
                </mxCell>
                <mxCell id="93" style="edgeStyle=orthogonalEdgeStyle;curved=1;sketch=1;html=1;exitX=1;exitY=0.5;exitDx=0;exitDy=0;entryX=0;entryY=0.5;entryDx=0;entryDy=0;fontSize=12;" edge="1" parent="1" source="91" target="92">
                    <mxGeometry relative="1" as="geometry"/>
                </mxCell>
                <mxCell id="91" value="" style="shape=image;imageAspect=0;aspect=fixed;verticalLabelPosition=bottom;verticalAlign=top;comic=1;fontSize=12;image=https://codereaper-image-bed.oss-cn-shenzhen.aliyuncs.com/img/image-20221025132722259.png;imageBorder=default;sketch=1;" vertex="1" parent="1">
                    <mxGeometry x="51.8" y="651" width="236.26" height="149.03" as="geometry"/>
                </mxCell>
                <mxCell id="95" style="sketch=1;html=1;exitX=0.5;exitY=1;exitDx=0;exitDy=0;entryX=0.5;entryY=0;entryDx=0;entryDy=0;fontSize=12;" edge="1" parent="1" source="92" target="94">
                    <mxGeometry relative="1" as="geometry"/>
                </mxCell>
                <mxCell id="92" value="" style="shape=image;imageAspect=0;aspect=fixed;verticalLabelPosition=bottom;verticalAlign=top;comic=1;sketch=1;fontSize=12;image=https://codereaper-image-bed.oss-cn-shenzhen.aliyuncs.com/img/image-20221025132826580.png;imageBorder=default;" vertex="1" parent="1">
                    <mxGeometry x="320.06" y="652.87" width="213.43" height="145.3" as="geometry"/>
                </mxCell>
                <mxCell id="94" value="" style="shape=image;imageAspect=0;aspect=fixed;verticalLabelPosition=bottom;verticalAlign=top;comic=1;sketch=1;fontSize=12;image=https://codereaper-image-bed.oss-cn-shenzhen.aliyuncs.com/img/image-20221025132950793.png;imageBorder=default;" vertex="1" parent="1">
                    <mxGeometry x="292.88" y="820" width="267.79" height="151.92" as="geometry"/>
                </mxCell>
                <mxCell id="96" value="英文的不确定信息的主语从句相当于：&lt;br&gt;① 按中文语序构成句子后&lt;br&gt;② 将引导词提前&lt;br&gt;来构成的" style="rounded=0;whiteSpace=wrap;html=1;fillColor=#ffe6cc;strokeColor=#d79b00;align=left;comic=1;sketch=1;" vertex="1" parent="1">
                    <mxGeometry x="51.8" y="865" width="215.07" height="70" as="geometry"/>
                </mxCell>
                <mxCell id="97" value="" style="shape=image;imageAspect=0;aspect=fixed;verticalLabelPosition=bottom;verticalAlign=top;comic=1;sketch=1;fontSize=12;image=https://codereaper-image-bed.oss-cn-shenzhen.aliyuncs.com/img/image-20221025134018216.png;imageBorder=default;" vertex="1" parent="1">
                    <mxGeometry x="659.5" y="1047.41" width="216.84" height="102.59" as="geometry"/>
                </mxCell>
                <mxCell id="98" value="it 替换，然后在末尾添加原主语从句" style="rounded=0;whiteSpace=wrap;html=1;fillColor=#ffe6cc;strokeColor=#d79b00;align=left;comic=1;sketch=1;" vertex="1" parent="1">
                    <mxGeometry x="659.5" y="1010" width="196.51" height="27.96" as="geometry"/>
                </mxCell>
                <mxCell id="100" value="" style="shape=image;imageAspect=0;aspect=fixed;verticalLabelPosition=bottom;verticalAlign=top;comic=1;sketch=1;fontSize=12;image=https://codereaper-image-bed.oss-cn-shenzhen.aliyuncs.com/img/image-20221025134340815.png;imageBorder=default;" vertex="1" parent="1">
                    <mxGeometry x="254.29" y="1305.96" width="231.61" height="138.08" as="geometry"/>
                </mxCell>
                <mxCell id="101" value="" style="shape=image;imageAspect=0;aspect=fixed;verticalLabelPosition=bottom;verticalAlign=top;comic=1;sketch=1;fontSize=12;image=https://codereaper-image-bed.oss-cn-shenzhen.aliyuncs.com/img/image-20221025134633655.png;imageBorder=default;" vertex="1" parent="1">
                    <mxGeometry x="280" y="1563.62" width="187.14" height="32.75" as="geometry"/>
                </mxCell>
                <mxCell id="103" style="edgeStyle=none;sketch=1;html=1;exitX=1;exitY=0.5;exitDx=0;exitDy=0;entryX=0;entryY=0.5;entryDx=0;entryDy=0;fontSize=12;comic=1;" edge="1" parent="1" source="102" target="52">
                    <mxGeometry relative="1" as="geometry"/>
                </mxCell>
                <mxCell id="102" value="否定前移" style="rounded=0;whiteSpace=wrap;html=1;fillColor=#ffe6cc;strokeColor=#d79b00;align=center;comic=1;" vertex="1" parent="1">
                    <mxGeometry x="40.83" y="1660" width="61.33" height="30" as="geometry"/>
                </mxCell>
                <mxCell id="104" value="" style="shape=image;imageAspect=0;aspect=fixed;verticalLabelPosition=bottom;verticalAlign=top;comic=1;sketch=1;fontSize=12;image=https://codereaper-image-bed.oss-cn-shenzhen.aliyuncs.com/img/image-20221025135202222.png;imageBorder=default;" vertex="1" parent="1">
                    <mxGeometry x="366.33000000000004" y="1830" width="263.17" height="108.81" as="geometry"/>
                </mxCell>
                <mxCell id="105" value="" style="shape=image;imageAspect=0;aspect=fixed;verticalLabelPosition=bottom;verticalAlign=top;comic=1;sketch=1;fontSize=12;image=https://codereaper-image-bed.oss-cn-shenzhen.aliyuncs.com/img/image-20221025135552987.png;imageBorder=default;" vertex="1" parent="1">
                    <mxGeometry x="608" y="2058.75" width="238.34" height="104.96" as="geometry"/>
                </mxCell>
                <mxCell id="106" value="&lt;div&gt;&lt;span&gt;主系表结构：&lt;/span&gt;&lt;/div&gt;&lt;div&gt;&lt;span&gt;表示 主 = 表 或 主语有表语描述这个特性&lt;/span&gt;&lt;/div&gt;" style="rounded=0;whiteSpace=wrap;html=1;fillColor=#ffe6cc;strokeColor=#d79b00;align=left;comic=1;sketch=1;" vertex="1" parent="1">
                    <mxGeometry x="608" y="2000" width="150" height="50" as="geometry"/>
                </mxCell>
                <mxCell id="107" value="" style="shape=image;imageAspect=0;aspect=fixed;verticalLabelPosition=bottom;verticalAlign=top;comic=1;sketch=1;fontSize=12;image=https://codereaper-image-bed.oss-cn-shenzhen.aliyuncs.com/img/image-20221025135712495.png;imageBorder=default;" vertex="1" parent="1">
                    <mxGeometry x="234.13000000000002" y="2058.75" width="343.87" height="102.5" as="geometry"/>
                </mxCell>
                <mxCell id="108" value="整个句子的完整信息包含在了表语从句中" style="rounded=0;whiteSpace=wrap;html=1;fillColor=#ffe6cc;strokeColor=#d79b00;align=left;comic=1;sketch=1;" vertex="1" parent="1">
                    <mxGeometry x="489.99999999999994" y="2197" width="150" height="46" as="geometry"/>
                </mxCell>
                <mxCell id="109" value="" style="shape=image;imageAspect=0;aspect=fixed;verticalLabelPosition=bottom;verticalAlign=top;comic=1;sketch=1;fontSize=12;image=https://codereaper-image-bed.oss-cn-shenzhen.aliyuncs.com/img/image-20221025135949592.png;imageBorder=default;" vertex="1" parent="1">
                    <mxGeometry x="234.13" y="2192.1" width="235.9" height="55.8" as="geometry"/>
                </mxCell>
            </root>
        </mxGraphModel>
    </diagram>
</mxfile>